<!DOCTYPE svg PUBLIC "-//W3C//DTD SVG 1.1//EN" "http://www.w3.org/Graphics/SVG/1.1/DTD/svg11.dtd">
<!-- Uploaded to: SVG Repo, www.svgrepo.com, Transformed by: SVG Repo Mixer Tools -->
<svg fill="#000000" height="64px" width="64px" version="1.1" id="Capa_1" xmlns="http://www.w3.org/2000/svg" xmlns:xlink="http://www.w3.org/1999/xlink" viewBox="0 0 421.862 421.862" xml:space="preserve" transform="rotate(90)" stroke="#000000" stroke-width="0.004218620000000001">
<g id="SVGRepo_bgCarrier" stroke-width="0"/>
<g id="SVGRepo_tracerCarrier" stroke-linecap="round" stroke-linejoin="round"/>
<g id="SVGRepo_iconCarrier"> <path d="M317.59,190.935c-8.43,0-16.176,2.978-22.248,7.933V66.745c0-18.287-14.877-33.165-33.165-33.165 c-7.582,0-14.573,2.563-20.165,6.86v-7.276C242.013,14.878,227.136,0,208.849,0s-33.165,14.878-33.165,33.165V48.44 c-5.592-4.297-12.583-6.86-20.165-6.86c-18.287,0-33.165,14.878-33.165,33.165v27.695c-5.592-4.297-12.583-6.86-20.165-6.86 c-18.287,0-33.165,14.878-33.165,33.165v181.651c0,39.583,13.729,78.314,38.658,109.059c1.285,1.584,3.161,2.407,5.053,2.406 c1.438,0,2.886-0.475,4.09-1.451c2.789-2.261,3.216-6.354,0.955-9.143c-23.057-28.437-35.755-64.261-35.755-100.872V128.745 c0-11.119,9.046-20.165,20.165-20.165c11.119,0,20.165,9.046,20.165,20.165v116.706c0,3.59,2.91,6.5,6.5,6.5s6.5-2.91,6.5-6.5 V74.745c0-11.119,9.046-20.165,20.165-20.165c11.119,0,20.165,9.046,20.165,20.165v159.544c0,3.59,2.91,6.5,6.5,6.5 s6.5-2.91,6.5-6.5V33.165c0-11.119,9.046-20.165,20.165-20.165c11.119,0,20.165,9.046,20.165,20.165V242.97c0,3.59,2.91,6.5,6.5,6.5 s6.5-2.91,6.5-6.5V66.745c0-11.119,9.046-20.165,20.165-20.165c11.119,0,20.165,9.046,20.165,20.165v233.359 c0,3.59,2.91,6.5,6.5,6.5s6.5-2.91,6.5-6.5v-73.922c0-12.267,9.98-22.247,22.248-22.247s22.247,9.98,22.247,22.247v93.109 c0,20.893-7.246,41.338-20.402,57.568s-31.659,27.551-52.1,31.875c-3.512,0.743-5.757,4.192-5.014,7.705 c0.647,3.059,3.347,5.156,6.353,5.156c0.445,0,0.898-0.046,1.352-0.142c23.348-4.939,44.481-17.869,59.508-36.407 c15.027-18.539,23.303-41.891,23.303-65.754v-93.109C352.837,206.747,337.026,190.935,317.59,190.935z"/> </g>
</svg>